<?xml version="1.0" encoding="UTF-8"?>
<!DOCTYPE svg PUBLIC "-//W3C//DTD SVG 1.1//EN" "http://www.w3.org/Graphics/SVG/1.1/DTD/svg11.dtd">
<!-- Creator: CorelDRAW -->
<svg xmlns="http://www.w3.org/2000/svg" xml:space="preserve" width="6.85117in" height="1.23761in" version="1.1" style="shape-rendering:geometricPrecision; text-rendering:geometricPrecision; image-rendering:optimizeQuality; fill-rule:evenodd; clip-rule:evenodd"
viewBox="0 0 6109.44 1103.63"
 xmlns:xlink="http://www.w3.org/1999/xlink"
 xmlns:xodm="http://www.corel.com/coreldraw/odm/2003">
 <defs>
  <style type="text/css">
   <![CDATA[
    .fil0 {fill:#373435;fill-rule:nonzero}
    .fil1 {fill:url(#id0);fill-rule:nonzero}
    .fil2 {fill:url(#id1);fill-rule:nonzero}
   ]]>
  </style>
  <linearGradient id="id0" gradientUnits="objectBoundingBox" x1="43.5575%" y1="0%" x2="56.4425%" y2="154.59%">
   <stop offset="0" style="stop-opacity:1; stop-color:#A44799"/>
   <stop offset="0.780392" style="stop-opacity:1; stop-color:#B470AF"/>
   <stop offset="1" style="stop-opacity:1; stop-color:#C499C6"/>
  </linearGradient>
  <linearGradient id="id1" gradientUnits="userSpaceOnUse" x1="753.46" y1="286.6" x2="1320.26" y2="1003.93">
   <stop offset="0" style="stop-opacity:1; stop-color:#A44799"/>
   <stop offset="0.658824" style="stop-opacity:1; stop-color:#B470AF"/>
   <stop offset="1" style="stop-opacity:1; stop-color:#C499C6"/>
  </linearGradient>
 </defs>
 <g id="Layer_x0020_1">
  <metadata id="CorelCorpID_0Corel-Layer"/>
  <path class="fil0" d="M-0 1021.87l0 -1021.87 94.82 0 0 1021.87 -94.82 0zm0 0l0 -88.43 653.4 -0.74 0 89.17 -653.4 0zm0 -466.96l0 -89.41 523.71 0 0 89.41 -523.71 0zm0 -465.73l0 -89.17 653.4 0 0 88.43 -653.4 0.74z"/>
  <path id="_1" class="fil0" d="M1955.67 1034.83c-112.73,0 -200.19,-31.42 -261.94,-94.05 -61.75,-62.63 -92.74,-151.63 -92.74,-266.56 0,-110.32 25.93,-195.8 78.01,-256.67 51.86,-60.65 125.26,-90.98 219.97,-90.98 88.56,0 157.12,27.47 205.69,82.41 48.79,54.94 73.18,132.95 73.18,234.26 0,26.59 -1.32,49 -3.96,67.02l-503.45 0 0 -73.4 425 0c0,-73.84 -17.14,-130.76 -51.2,-170.97 -34.06,-39.99 -81.97,-60.21 -143.94,-60.21 -68.56,0 -121.74,23.51 -159.54,70.32 -37.8,46.81 -56.7,112.29 -56.7,196.9 0,90.1 25.05,159.76 74.93,208.99 50.1,49 120.87,73.62 212.28,73.62 25.27,0 51.86,-1.54 79.99,-4.83 28.13,-3.08 55.16,-7.47 80.87,-13.19l12.31 79.33c-29.67,6.38 -60.87,10.99 -93.84,13.85 -32.74,2.64 -64.39,4.17 -94.93,4.17z"/>
  <path id="_2" class="fil0" d="M2850.73 1021.87l0 -446.1c0,-54.06 -14.5,-95.81 -43.07,-125.04 -28.79,-29.01 -68.78,-43.73 -119.77,-43.73 -134.49,0 -201.51,76.48 -201.51,229.2l-40.65 -173.17 48.34 0c9.89,-45.93 31.21,-80.21 64.39,-102.62 32.97,-22.64 78.45,-33.84 136.47,-33.84 76.91,0 136.25,21.98 178.22,65.71 42.19,43.73 63.29,105.48 63.29,185.47l0 444.12 -85.71 0zm-450.05 0l0 -682.33 78.01 0 7.69 144.16 0 538.17 -85.71 0z"/>
  <path id="_3" class="fil0" d="M3564.7 1034.83c-87.9,0 -152.95,-22.63 -194.92,-67.68 -42.19,-45.05 -63.07,-114.27 -63.07,-207.23l0 -111.41 86.14 0 0 109.44c0,66.59 14.95,115.81 45.05,148.11 30.1,32.08 76.69,48.13 139.76,48.13 24.83,0 49,-1.1 72.3,-3.51 23.52,-2.2 48.13,-5.49 73.84,-9.23l9.67 77.79c-28.35,5.27 -56.04,9.01 -83.07,11.65 -27.03,2.64 -55.6,3.96 -85.7,3.96zm-257.99 -334.9l0 -566.52 86.14 0 0 566.52 -86.14 0zm-196.46 -281.94l0 -78.45 597.51 0 0 78.45 -597.51 0z"/>
  <path id="_4" class="fil1" d="M4361.31 1021.87l0 -914.17 155.15 0 0 914.17 -155.15 0zm-450.05 0l0 -914.17 155.14 0 0 914.17 -155.14 0zm27.03 -383.69l0 -142.84 554.22 0 0 142.84 -554.22 0z"/>
  <path id="_5" class="fil1" d="M4983.87 1034.83c-199.98,0 -299.96,-102.18 -299.96,-306.55l0 -620.58 155.14 0 0 620.58c0,52.74 11.87,92.73 35.82,119.76 23.73,27.03 60.87,40.65 111.64,40.65 98.23,-0.44 147.45,-54.06 147.45,-160.42l0 -620.58 155.15 0 0 620.58c0,102.18 -25.93,178.88 -78.01,229.86 -51.86,50.98 -127.68,76.69 -227.22,76.69z"/>
  <path id="_6" class="fil1" d="M5615.44 1021.87l0 -142.84 173.38 0c50.54,0.44 89.88,-11.21 118.01,-34.94 28.13,-23.52 41.97,-56.48 41.53,-99.11 0.44,-42.85 -14.06,-76.04 -43.51,-99.33 -29.23,-23.51 -70.98,-35.16 -125.04,-35.16l-161.74 0 -15.38 -64.39 241.51 0c84.39,0 149.87,19.56 196.02,58.68 46.15,38.9 69.23,94.27 69.23,165.91 0,79.99 -24.84,141.74 -74.06,185.47 -49.44,43.73 -119.1,65.71 -209.2,65.71l-210.74 0zm-146.14 0l0 -914.17 155.37 0 0 914.17 -155.37 0zm102.4 -449.39l0 -63.07 256.89 0 0.66 63.07 -257.55 0zm43.73 -40.44l0 -64.39 134.71 0c43.29,0 76.47,-9.67 99.33,-28.78 23.07,-19.12 34.5,-46.81 34.5,-83.29 0,-34.28 -12.08,-60.43 -36.26,-78.23 -24.39,-17.8 -59.77,-26.81 -106.58,-26.81l-123.06 0 -15.38 -142.84 144.82 0c94.5,0 167.67,19.78 219.54,59.55 51.86,39.77 78.01,96.03 78.01,168.99 0,63.07 -21.98,111.41 -65.71,145.26 -43.73,33.62 -105.7,50.54 -185.47,50.54l-178.44 0z"/>
  <path class="fil2" d="M1051.38 370.67c32.86,-107.05 -27.61,-215.49 -135.01,-242.11 -107.4,-26.62 -221.2,38.64 -254.06,145.68 -32.86,107.04 27.61,215.49 135.01,242.11 8.11,2.01 16.34,3.61 24.55,4.56l36.89 213.66c-44.51,26.35 -79.75,68.69 -95.81,121 -32.86,107.04 27.61,215.49 135.01,242.11 107.4,26.62 221.2,-38.63 254.06,-145.68 16.06,-52.31 9.96,-104.9 -13.21,-148.02l153.59 -166.45c7.59,2.97 15.37,5.33 23.68,7.39 107.4,26.62 221.2,-38.63 254.06,-145.68 32.86,-107.04 -27.61,-215.49 -135.01,-242.11 -107.4,-26.62 -221.2,38.63 -254.06,145.68 -16.06,52.31 -9.96,104.89 13.21,148.02l-153.59 166.45c-7.59,-2.97 -15.37,-5.33 -23.68,-7.39 -8.31,-2.06 -16.34,-3.62 -24.55,-4.56l-36.89 -213.66c44.51,-26.35 79.75,-68.7 95.81,-121z"/>
 </g>
</svg>
