<?xml version="1.0" encoding="UTF-8"?>
<!DOCTYPE svg PUBLIC "-//W3C//DTD SVG 1.1//EN" "http://www.w3.org/Graphics/SVG/1.1/DTD/svg11.dtd">
<!-- Creator: CorelDRAW -->
<svg xmlns="http://www.w3.org/2000/svg" xml:space="preserve" width="0.619894in" height="0.655114in" version="1.1" style="shape-rendering:geometricPrecision; text-rendering:geometricPrecision; image-rendering:optimizeQuality; fill-rule:evenodd; clip-rule:evenodd"
viewBox="0 0 205.98 217.68"
 xmlns:xlink="http://www.w3.org/1999/xlink"
 xmlns:xodm="http://www.corel.com/coreldraw/odm/2003">
 <defs>
  <style type="text/css">
   <![CDATA[
    .fil1 {fill:black;fill-rule:nonzero}
    .fil0 {fill:url(#id0)}
   ]]>
  </style>
  <linearGradient id="id0" gradientUnits="userSpaceOnUse" x1="55.45" y1="30.89" x2="128.57" y2="204.34">
   <stop offset="0" style="stop-opacity:1; stop-color:#A44799"/>
   <stop offset="1" style="stop-opacity:1; stop-color:#C499C6"/>
  </linearGradient>
 </defs>
 <g id="Layer_x0020_1">
  <metadata id="CorelCorpID_0Corel-Layer"/>
  <g id="_850068816">
   <path class="fil0" d="M165.74 212.06c-30.97,9.68 -129.42,5.67 -161.56,-3.16 -4.79,-30.14 -10.45,-167.36 14.22,-182.24 20.68,-12.44 149.26,-15.87 158.76,14.27 7.74,24.52 7.18,151.36 -6.84,167.86l-4.58 3.25 0 0.02z"/>
   <path class="fil1" d="M111.43 56.89c10.2,-18.6 3.39,-41.94 -15.19,-52.15 -18.6,-10.2 -41.94,-3.41 -52.15,15.19 -10.2,18.6 -3.41,41.94 15.19,52.15 1.4,0.77 2.84,1.47 4.31,2.05l-1.62 42.06c-9.17,2.82 -17.27,9.1 -22.26,18.17 -10.2,18.6 -3.39,41.94 15.19,52.15 18.6,10.2 41.94,3.41 52.15,-15.19 4.99,-9.07 5.94,-19.3 3.39,-28.53l34.61 -23.95c1.26,0.92 2.6,1.74 4.04,2.53 18.6,10.2 41.94,3.39 52.15,-15.19 10.2,-18.6 3.41,-41.94 -15.19,-52.15 -18.6,-10.2 -41.94,-3.41 -52.15,15.19 -4.99,9.07 -5.94,19.3 -3.39,28.53l-34.61 23.95c-1.26,-0.92 -2.6,-1.74 -4.04,-2.53 -1.44,-0.79 -2.84,-1.47 -4.31,-2.05l1.62 -42.06c9.17,-2.82 17.27,-9.1 22.26,-18.17z"/>
  </g>
 </g>
</svg>
